<?xml version="1.0" encoding="UTF-8" standalone="no"?>
<!-- Created with Inkscape (http://www.inkscape.org/) -->

<svg
   xmlns:dc="http://purl.org/dc/elements/1.1/"
   xmlns:cc="http://creativecommons.org/ns#"
   xmlns:rdf="http://www.w3.org/1999/02/22-rdf-syntax-ns#"
   xmlns:svg="http://www.w3.org/2000/svg"
   xmlns="http://www.w3.org/2000/svg"
   xmlns:sodipodi="http://sodipodi.sourceforge.net/DTD/sodipodi-0.dtd"
   xmlns:inkscape="http://www.inkscape.org/namespaces/inkscape"
   width="16"
   height="16"
   viewBox="0 0 4.2333333 4.2333337"
   version="1.1"
   id="svg8"
   inkscape:version="0.92.1 r15371"
   sodipodi:docname="GenesysTriumph.svg">
  <defs
     id="defs2" />
  <sodipodi:namedview
     id="base"
     pagecolor="#ffffff"
     bordercolor="#666666"
     borderopacity="1.0"
     inkscape:pageopacity="0.0"
     inkscape:pageshadow="2"
     inkscape:zoom="11.2"
     inkscape:cx="13.443322"
     inkscape:cy="23.750043"
     inkscape:document-units="mm"
     inkscape:current-layer="layer1"
     showgrid="false"
     units="px"
     inkscape:window-width="1920"
     inkscape:window-height="1017"
     inkscape:window-x="3832"
     inkscape:window-y="-8"
     inkscape:window-maximized="1" />
  <metadata
     id="metadata5">
    <rdf:RDF>
      <cc:Work
         rdf:about="">
        <dc:format>image/svg+xml</dc:format>
        <dc:type
           rdf:resource="http://purl.org/dc/dcmitype/StillImage" />
        <dc:title />
      </cc:Work>
    </rdf:RDF>
  </metadata>
  <g
     inkscape:label="Layer 1"
     inkscape:groupmode="layer"
     id="layer1"
     transform="translate(0,-292.76664)">
    <text
       xml:space="preserve"
       style="font-style:normal;font-variant:normal;font-weight:normal;font-stretch:condensed;font-size:11.90625px;line-height:125%;font-family:Impact;-inkscape-font-specification:'Impact, Condensed';text-align:start;letter-spacing:0px;word-spacing:0px;writing-mode:lr-tb;text-anchor:start;fill:#000000;fill-opacity:1;stroke:none;stroke-width:0.26458332px;stroke-linecap:butt;stroke-linejoin:miter;stroke-opacity:1"
       x="2.0788691"
       y="294.96835"
       id="text4487"><tspan
         sodipodi:role="line"
         id="tspan4485"
         x="2.0788691"
         y="306.88748"
         style="stroke-width:0.26458332px" /></text>
    <g
       aria-label="t"
       style="font-style:normal;font-variant:normal;font-weight:normal;font-stretch:condensed;font-size:11.90625px;line-height:125%;font-family:Impact;-inkscape-font-specification:'Impact, Condensed';text-align:start;letter-spacing:0px;word-spacing:0px;writing-mode:lr-tb;text-anchor:start;fill:#000000;fill-opacity:1;stroke:none;stroke-width:0.26458332px;stroke-linecap:butt;stroke-linejoin:miter;stroke-opacity:1"
       id="text4493"
       transform="translate(-0.02264892,-0.05056187)">
      <path
         d="m 1.7256972,292.89183 q -0.3183268,0.062 -0.5705078,0.20258 -0.24804687,0.13642 -0.48369139,0.36793 -0.16536458,0.16123 -0.28525389,0.34313 -0.11988932,0.1819 -0.19843749,0.38034 -0.0785482,0.19844 -0.11162109,0.40928 -0.0289388,0.21084 -0.01653646,0.43408 0.01240235,0.26045 0.0578776,0.44649 0.0496094,0.1819 0.16536458,0.41341 0.0702799,0.14882 0.144694,0.24804 0.0744141,0.0951 0.23977863,0.26045 0.16123046,0.16537 0.32659504,0.28526 0.16949867,0.11575 0.34726557,0.19017 0.1819011,0.0785 0.3762044,0.11162 0.1943034,0.0372 0.4175456,0.0372 0.3679362,0 0.6986653,-0.11575 0.3307292,-0.11162 0.5953125,-0.31833 0.2687174,-0.21084 0.4588867,-0.50023 0.1943034,-0.29352 0.2811198,-0.64905 0.041341,-0.14883 0.049609,-0.25632 0.00827,-0.10748 0,-0.31832 -0.012402,-0.29766 -0.074414,-0.52504 -0.062012,-0.22737 -0.1943034,-0.45061 -0.099219,-0.17777 -0.3307291,-0.40928 -0.2315105,-0.23565 -0.4010091,-0.33073 -0.1736328,-0.10335 -0.359668,-0.1695 -0.1860351,-0.0703 -0.3762044,-0.10335 -0.1901693,-0.0331 -0.3803385,-0.0289 -0.1901693,0.004 -0.3762044,0.0455 z m 0.2811197,0.45889 q -0.045475,0.14056 -0.1612304,0.3514 -0.1157552,0.21084 -0.144694,0.21084 -0.057878,0 -0.2232422,-0.0537 -0.1653646,-0.0537 -0.2935221,-0.11576 l -0.19016927,-0.0868 0.0826823,-0.0661 q 0.1653646,-0.13229 0.4299479,-0.23978 0.2645833,-0.10749 0.4382161,-0.11162 h 0.1033529 l -0.041341,0.11162 z m 0.5787761,-0.0703 q 0.1488281,0.0413 0.3224609,0.12816 0.1777669,0.0827 0.2728515,0.16536 0.062012,0.0537 0.07028,0.0744 0.012402,0.0207 -0.016536,0.0413 -0.049609,0.0331 -0.2687174,0.11575 -0.214974,0.0786 -0.2976563,0.0951 -0.074414,0.0165 -0.1033528,0 -0.024805,-0.0165 -0.078548,-0.10336 -0.053744,-0.0868 -0.1198893,-0.23564 -0.066146,-0.14883 -0.099219,-0.26045 -0.016536,-0.0455 -0.00413,-0.0537 0.012402,-0.008 0.074414,-0.008 0.041341,0 0.1116211,0.0124 0.074414,0.0124 0.1364258,0.0289 z m -1.65364579,0.65319 q 0.0537435,0.10335 0.11988929,0.30592 0.066146,0.20258 0.066146,0.25219 0,0.0372 -0.15296227,0.12815 -0.15296223,0.0868 -0.33486327,0.1571 -0.0785482,0.0289 -0.13642577,0.0496 -0.0578776,0.0207 -0.0620117,0.0207 -0.0124024,0 0.0124023,-0.1695 0.0289388,-0.1695 0.0537435,-0.24805 0.0496094,-0.14056 0.18190103,-0.38447 0.13642577,-0.24391 0.1736328,-0.24391 0.004134,0 0.0248047,0.0413 0.0248047,0.0372 0.0537435,0.091 z m 2.72438139,0.20671 q 0.074414,0.14056 0.1198893,0.28938 0.049609,0.14883 0.07028,0.28112 l 0.016536,0.13643 -0.1529622,-0.0537 q -0.1281576,-0.0455 -0.2604492,-0.10749 -0.1322917,-0.0661 -0.2191081,-0.12402 l -0.074414,-0.0538 0.045475,-0.15709 q 0.016536,-0.0703 0.053743,-0.17364 0.037207,-0.10335 0.074414,-0.18603 l 0.086816,-0.19844 0.082682,0.0951 q 0.033073,0.0413 0.078548,0.11575 0.045475,0.0744 0.078548,0.13643 z m -1.3642578,0.19843 q 0.2769857,0.0744 0.4010091,0.339 0.1281576,0.26458 0.00827,0.5209 -0.074414,0.16123 -0.214974,0.25218 -0.1364258,0.091 -0.2935221,0.10335 -0.1570964,0.0124 -0.3100586,-0.0537 -0.1488281,-0.0661 -0.2480468,-0.21084 -0.177767,-0.26458 -0.082682,-0.5457 0.099219,-0.28526 0.4010091,-0.39274 0.1033528,-0.0331 0.1653645,-0.0372 0.066146,-0.004 0.1736328,0.0248 z m -1.47587879,0.85163 q 0.10335286,0.0496 0.18190103,0.0951 0.0826823,0.0413 0.0950847,0.062 0.016536,0.0165 0.016536,0.0579 0,0.0372 -0.016536,0.10748 -0.037207,0.15296 -0.12815741,0.3514 -0.0868164,0.19431 -0.11162109,0.18604 -0.037207,-0.008 -0.15709635,-0.19431 -0.11988931,-0.19017 -0.16536457,-0.31005 -0.0206706,-0.062 -0.0454753,-0.1571 -0.0248047,-0.0951 -0.0330729,-0.1695 l -0.0289388,-0.17777 0.0744141,0.0165 q 0.0289388,0.004 0.11988931,0.0455 0.0950846,0.0413 0.19843749,0.0868 z m 3.04270819,-0.0951 q 0,0.10748 -0.057878,0.28112 -0.053743,0.1695 -0.1281576,0.32659 -0.074414,0.1571 -0.1488281,0.26458 -0.074414,0.10336 -0.1116211,0.0827 -0.028939,-0.0207 -0.1157552,-0.23978 -0.086816,-0.21911 -0.1157552,-0.339 l -0.024805,-0.11575 0.1529623,-0.0868 q 0.1240234,-0.0703 0.2976562,-0.14469 0.1736328,-0.0786 0.214974,-0.0827 0.012402,0 0.024805,0.0165 0.012402,0.0165 0.012402,0.0372 z m -2.0257161,1.04593 q 0.033073,0.0579 0.074414,0.15296 0.041341,0.0951 0.074414,0.17363 l 0.07028,0.18604 h -0.066146 q -0.086816,-0.004 -0.2232422,-0.0413 -0.1322917,-0.0372 -0.2728515,-0.0951 -0.1364258,-0.0579 -0.2563151,-0.11989 -0.1157552,-0.0661 -0.1694987,-0.12402 l -0.062012,-0.0662 0.1777669,-0.0785 q 0.1777669,-0.0786 0.3472656,-0.12403 0.1736328,-0.0496 0.2025716,-0.0289 0.012402,0.0124 0.041341,0.062 0.033073,0.0455 0.062012,0.10336 z m 0.9508463,-0.13229 q 0.107487,0.0331 0.2935222,0.11989 0.1860351,0.0827 0.1860351,0.10335 0,0.0289 -0.1901692,0.14469 -0.1860352,0.11576 -0.3100586,0.16123 -0.144694,0.0579 -0.3141927,0.091 -0.1694987,0.0331 -0.1901693,0.0165 -0.02067,-0.0207 0.053744,-0.21497 0.078548,-0.19431 0.1612305,-0.33487 0.066146,-0.11575 0.1033528,-0.12402 0.037207,-0.0124 0.2067052,0.0372 z"
         style="font-style:normal;font-variant:normal;font-weight:normal;font-stretch:normal;font-size:4.23333311px;font-family:Genesys;-inkscape-font-specification:Genesys;stroke-width:0.26458332px"
         id="path4486"
         inkscape:connector-curvature="0" />
    </g>
  </g>
</svg>
