<?xml version="1.0" encoding="UTF-8" standalone="no"?>
<!-- Created with Inkscape (http://www.inkscape.org/) -->

<svg
   xmlns:dc="http://purl.org/dc/elements/1.1/"
   xmlns:cc="http://creativecommons.org/ns#"
   xmlns:rdf="http://www.w3.org/1999/02/22-rdf-syntax-ns#"
   xmlns:svg="http://www.w3.org/2000/svg"
   xmlns="http://www.w3.org/2000/svg"
   xmlns:sodipodi="http://sodipodi.sourceforge.net/DTD/sodipodi-0.dtd"
   xmlns:inkscape="http://www.inkscape.org/namespaces/inkscape"
   width="16"
   height="16"
   viewBox="0 0 4.2333333 4.2333337"
   version="1.1"
   id="svg8"
   inkscape:version="0.92.1 r15371"
   sodipodi:docname="GenesysFailure.svg">
  <defs
     id="defs2" />
  <sodipodi:namedview
     id="base"
     pagecolor="#ffffff"
     bordercolor="#666666"
     borderopacity="1.0"
     inkscape:pageopacity="0.0"
     inkscape:pageshadow="2"
     inkscape:zoom="11.2"
     inkscape:cx="13.443322"
     inkscape:cy="23.750043"
     inkscape:document-units="mm"
     inkscape:current-layer="layer1"
     showgrid="false"
     units="px"
     inkscape:window-width="1920"
     inkscape:window-height="1017"
     inkscape:window-x="3832"
     inkscape:window-y="-8"
     inkscape:window-maximized="1" />
  <metadata
     id="metadata5">
    <rdf:RDF>
      <cc:Work
         rdf:about="">
        <dc:format>image/svg+xml</dc:format>
        <dc:type
           rdf:resource="http://purl.org/dc/dcmitype/StillImage" />
        <dc:title></dc:title>
      </cc:Work>
    </rdf:RDF>
  </metadata>
  <g
     inkscape:label="Layer 1"
     inkscape:groupmode="layer"
     id="layer1"
     transform="translate(0,-292.76664)">
    <text
       xml:space="preserve"
       style="font-style:normal;font-variant:normal;font-weight:normal;font-stretch:condensed;font-size:11.90625px;line-height:125%;font-family:Impact;-inkscape-font-specification:'Impact, Condensed';text-align:start;letter-spacing:0px;word-spacing:0px;writing-mode:lr-tb;text-anchor:start;fill:#000000;fill-opacity:1;stroke:none;stroke-width:0.26458332px;stroke-linecap:butt;stroke-linejoin:miter;stroke-opacity:1"
       x="2.0788691"
       y="294.96835"
       id="text4487"><tspan
         sodipodi:role="line"
         id="tspan4485"
         x="2.0788691"
         y="306.88748"
         style="stroke-width:0.26458332px" /></text>
    <g
       aria-label="f"
       style="font-style:normal;font-variant:normal;font-weight:normal;font-stretch:condensed;font-size:11.90625px;line-height:125%;font-family:Impact;-inkscape-font-specification:'Impact, Condensed';text-align:start;letter-spacing:0px;word-spacing:0px;writing-mode:lr-tb;text-anchor:start;fill:#000000;fill-opacity:1;stroke:none;stroke-width:0.26458332px;stroke-linecap:butt;stroke-linejoin:miter;stroke-opacity:1"
       id="text4493"
       transform="matrix(1.1115675,0,0,1.1115675,-0.29562415,-32.967331)">
      <path
         d="m 0.68803447,293.47061 q 0,0.004 0.144694,0.22738 0.14882812,0.2191 0.35553383,0.52089 l 0.4960937,0.72347 -0.5002278,0.73174 q -0.20670573,0.30179 -0.35139973,0.5209 -0.144694,0.21911 -0.14055989,0.22324 0.004134,0.004 0.21497395,-0.13642 0.21497397,-0.1447 0.51263017,-0.34727 0.2935221,-0.20257 0.5167643,-0.34313 0.2232422,-0.14469 0.2439128,-0.14056 0.016536,0.004 0.2356445,0.15296 0.2232421,0.1447 0.5167643,0.34313 0.2935221,0.20258 0.5043619,0.34314 0.2108399,0.14056 0.214974,0.13642 0.00413,-0.004 -0.144694,-0.22324 -0.144694,-0.21911 -0.3555339,-0.52503 l -0.5043619,-0.73588 0.5043619,-0.73587 q 0.2108399,-0.30179 0.3555339,-0.5209 0.1488281,-0.2191 0.144694,-0.22324 -0.00413,-0.004 -0.2191081,0.14056 -0.2149739,0.14056 -0.5208984,0.34727 -0.2976562,0.20257 -0.5208984,0.3514 -0.2191081,0.14469 -0.2273763,0.14469 -0.00413,0 -0.1488281,-0.091 -0.1405599,-0.0951 -0.3513997,-0.23564 -0.2067058,-0.14056 -0.4506185,-0.30593 -0.23977864,-0.16536 -0.44235025,-0.30592 -0.0330729,-0.0248 -0.0578776,-0.0331 -0.0248047,-0.0124 -0.0248047,-0.004 z"
         style="font-style:normal;font-variant:normal;font-weight:normal;font-stretch:normal;font-size:4.23333311px;font-family:Genesys;-inkscape-font-specification:Genesys;stroke-width:0.26458332px"
         id="path6717"
         inkscape:connector-curvature="0" />
    </g>
  </g>
</svg>
