<?xml version="1.0" encoding="UTF-8" standalone="no"?>
<!-- Created with Inkscape (http://www.inkscape.org/) -->

<svg
   xmlns:dc="http://purl.org/dc/elements/1.1/"
   xmlns:cc="http://creativecommons.org/ns#"
   xmlns:rdf="http://www.w3.org/1999/02/22-rdf-syntax-ns#"
   xmlns:svg="http://www.w3.org/2000/svg"
   xmlns="http://www.w3.org/2000/svg"
   xmlns:sodipodi="http://sodipodi.sourceforge.net/DTD/sodipodi-0.dtd"
   xmlns:inkscape="http://www.inkscape.org/namespaces/inkscape"
   width="16"
   height="16"
   viewBox="0 0 4.2333333 4.2333337"
   version="1.1"
   id="svg8"
   inkscape:version="0.92.1 r15371"
   sodipodi:docname="GenesysThreat.svg">
  <defs
     id="defs2" />
  <sodipodi:namedview
     id="base"
     pagecolor="#ffffff"
     bordercolor="#666666"
     borderopacity="1.0"
     inkscape:pageopacity="0.0"
     inkscape:pageshadow="2"
     inkscape:zoom="11.2"
     inkscape:cx="13.443322"
     inkscape:cy="23.750043"
     inkscape:document-units="mm"
     inkscape:current-layer="layer1"
     showgrid="false"
     units="px"
     inkscape:window-width="1920"
     inkscape:window-height="1017"
     inkscape:window-x="3832"
     inkscape:window-y="-8"
     inkscape:window-maximized="1" />
  <metadata
     id="metadata5">
    <rdf:RDF>
      <cc:Work
         rdf:about="">
        <dc:format>image/svg+xml</dc:format>
        <dc:type
           rdf:resource="http://purl.org/dc/dcmitype/StillImage" />
        <dc:title></dc:title>
      </cc:Work>
    </rdf:RDF>
  </metadata>
  <g
     inkscape:label="Layer 1"
     inkscape:groupmode="layer"
     id="layer1"
     transform="translate(0,-292.76664)">
    <text
       xml:space="preserve"
       style="font-style:normal;font-variant:normal;font-weight:normal;font-stretch:condensed;font-size:11.90625px;line-height:125%;font-family:Impact;-inkscape-font-specification:'Impact, Condensed';text-align:start;letter-spacing:0px;word-spacing:0px;writing-mode:lr-tb;text-anchor:start;fill:#000000;fill-opacity:1;stroke:none;stroke-width:0.26458332px;stroke-linecap:butt;stroke-linejoin:miter;stroke-opacity:1"
       x="2.0788691"
       y="294.96835"
       id="text4487"><tspan
         sodipodi:role="line"
         id="tspan4485"
         x="2.0788691"
         y="306.88748"
         style="stroke-width:0.26458332px" /></text>
    <g
       aria-label="h"
       style="font-style:normal;font-variant:normal;font-weight:normal;font-stretch:condensed;font-size:11.90625px;line-height:125%;font-family:Impact;-inkscape-font-specification:'Impact, Condensed';text-align:start;letter-spacing:0px;word-spacing:0px;writing-mode:lr-tb;text-anchor:start;fill:#000000;fill-opacity:1;stroke:none;stroke-width:0.26458332px;stroke-linecap:butt;stroke-linejoin:miter;stroke-opacity:1"
       id="text4493"
       transform="translate(-0.04225049,-0.09659167)">
      <path
         d="m 2.1721815,293.19362 q -0.00413,0.0165 -0.024805,0.0703 -0.020671,0.0496 -0.037207,0.10336 -0.020671,0.0537 -0.07028,0.14469 -0.045475,0.0909 -0.090951,0.16537 -0.078548,0.11575 -0.1240234,0.15296 -0.045475,0.0372 -0.1488281,0.0703 -0.2480469,0.0786 -0.4506185,0.25631 -0.2025716,0.17364 -0.33486323,0.40515 -0.13229166,0.23151 -0.18190103,0.50022 -0.0496094,0.26459 0.008268,0.51677 0.0248047,0.091 0.0124023,0.14469 -0.0124023,0.0496 -0.0909505,0.19431 -0.0454753,0.0868 -0.1157552,0.18603 -0.0661458,0.0951 -0.11162109,0.14883 -0.0537435,0.0537 -0.0744141,0.0868 -0.0206706,0.0289 0,0.0207 0.0950846,-0.0372 0.26458332,-0.0538 0.16949869,-0.0207 0.30592447,-0.008 0.12815756,0.0124 0.18190106,0.0331 0.057878,0.0207 0.1240234,0.0827 0.1281575,0.11575 0.2687174,0.19017 0.144694,0.0744 0.3307292,0.11989 0.2067057,0.0537 0.3513997,0.0579 0.144694,0 0.3348633,-0.0414 0.1694986,-0.0413 0.3224609,-0.11575 0.1570963,-0.0786 0.3017903,-0.1943 l 0.1488281,-0.11989 0.322461,0.0124 q 0.1322916,0.004 0.2439127,0.0165 0.1116211,0.0124 0.1364258,0.0207 0.028939,0.0124 0.00827,-0.0165 -0.016536,-0.0289 -0.074414,-0.0992 -0.053743,-0.0579 -0.1157552,-0.15296 -0.062012,-0.0992 -0.099219,-0.17363 -0.066146,-0.13643 -0.074414,-0.18604 -0.00827,-0.0537 0.016536,-0.22324 0.037207,-0.23565 -0.00413,-0.46302 -0.041341,-0.22738 -0.144694,-0.42582 -0.1033529,-0.20257 -0.2687174,-0.36793 -0.1612305,-0.16537 -0.3720703,-0.27285 -0.099219,-0.0455 -0.177767,-0.0786 -0.078548,-0.0372 -0.095085,-0.0372 -0.053744,0 -0.1901692,-0.23151 -0.1364258,-0.23564 -0.1736328,-0.39687 -0.012402,-0.0413 -0.020671,-0.0537 -0.00827,-0.0124 -0.016536,0.0124 z m -0.2935221,1.14515 q 0.078548,0.10749 0.1736328,0.30593 0.095085,0.1943 0.095085,0.24805 0,0.0207 0.00827,0.0372 0.012402,0.0124 0.024805,0.0124 0.012402,0 0.020671,-0.0124 0.00827,-0.0165 0.00827,-0.0413 0,-0.0579 0.1198893,-0.28939 0.1198893,-0.23151 0.1860351,-0.31006 l 0.078548,-0.0868 0.1322916,0.0744 q 0.1405599,0.0703 0.2769857,0.21498 0.1405599,0.14469 0.2108398,0.28525 0.062012,0.13643 0.095085,0.32246 0.033073,0.18604 0.016536,0.29352 -0.012402,0.0703 -0.033073,0.0868 -0.020671,0.0165 -0.1157552,0.0289 -0.1570963,0.0248 -0.3100586,0.0207 -0.1488281,-0.008 -0.2687174,-0.0372 l -0.1529622,-0.0413 0.1198893,0.13229 q 0.045475,0.0537 0.1157552,0.16537 0.07028,0.10748 0.1157552,0.20257 l 0.1157552,0.23564 -0.082682,0.0661 q -0.082682,0.0661 -0.2480469,0.12402 -0.1653645,0.0579 -0.3141926,0.0744 -0.1984375,0.0207 -0.467155,-0.062 -0.2687174,-0.0868 -0.3348632,-0.19843 -0.033073,-0.0537 0.078548,-0.27285 0.1157552,-0.21911 0.2439128,-0.3514 0.049609,-0.0538 0.07028,-0.0868 0.020671,-0.0331 0.00413,-0.0248 -0.095085,0.0414 -0.2935221,0.0579 -0.1984375,0.0165 -0.3389974,-0.004 l -0.2025716,-0.0248 v -0.23564 q 0.00413,-0.15296 0.020671,-0.23151 0.016537,-0.0786 0.07028,-0.19844 0.037207,-0.0744 0.095085,-0.16536 0.062012,-0.0951 0.107487,-0.1447 0.078548,-0.0868 0.2315104,-0.19017 0.1529622,-0.10335 0.2025716,-0.10335 0.012402,0 0.045475,0.0372 0.037207,0.0372 0.078548,0.0868 z"
         style="font-style:normal;font-variant:normal;font-weight:normal;font-stretch:normal;font-size:4.23333311px;font-family:Genesys;-inkscape-font-specification:Genesys;stroke-width:0.26458332px"
         id="path7827"
         inkscape:connector-curvature="0" />
    </g>
  </g>
</svg>
