<?xml version="1.0" encoding="UTF-8" standalone="no"?>
<!-- Created with Inkscape (http://www.inkscape.org/) -->

<svg
   xmlns:dc="http://purl.org/dc/elements/1.1/"
   xmlns:cc="http://creativecommons.org/ns#"
   xmlns:rdf="http://www.w3.org/1999/02/22-rdf-syntax-ns#"
   xmlns:svg="http://www.w3.org/2000/svg"
   xmlns="http://www.w3.org/2000/svg"
   xmlns:sodipodi="http://sodipodi.sourceforge.net/DTD/sodipodi-0.dtd"
   xmlns:inkscape="http://www.inkscape.org/namespaces/inkscape"
   width="16"
   height="16"
   viewBox="0 0 4.2333333 4.2333337"
   version="1.1"
   id="svg8"
   inkscape:version="0.92.1 r15371"
   sodipodi:docname="GenesysSuccess.svg">
  <defs
     id="defs2" />
  <sodipodi:namedview
     id="base"
     pagecolor="#ffffff"
     bordercolor="#666666"
     borderopacity="1.0"
     inkscape:pageopacity="0.0"
     inkscape:pageshadow="2"
     inkscape:zoom="11.2"
     inkscape:cx="13.443322"
     inkscape:cy="23.750043"
     inkscape:document-units="mm"
     inkscape:current-layer="layer1"
     showgrid="false"
     units="px"
     inkscape:window-width="1920"
     inkscape:window-height="1017"
     inkscape:window-x="3832"
     inkscape:window-y="-8"
     inkscape:window-maximized="1" />
  <metadata
     id="metadata5">
    <rdf:RDF>
      <cc:Work
         rdf:about="">
        <dc:format>image/svg+xml</dc:format>
        <dc:type
           rdf:resource="http://purl.org/dc/dcmitype/StillImage" />
        <dc:title></dc:title>
      </cc:Work>
    </rdf:RDF>
  </metadata>
  <g
     inkscape:label="Layer 1"
     inkscape:groupmode="layer"
     id="layer1"
     transform="translate(0,-292.76664)">
    <text
       xml:space="preserve"
       style="font-style:normal;font-variant:normal;font-weight:normal;font-stretch:condensed;font-size:11.90625px;line-height:125%;font-family:Impact;-inkscape-font-specification:'Impact, Condensed';text-align:start;letter-spacing:0px;word-spacing:0px;writing-mode:lr-tb;text-anchor:start;fill:#000000;fill-opacity:1;stroke:none;stroke-width:0.26458332px;stroke-linecap:butt;stroke-linejoin:miter;stroke-opacity:1"
       x="2.0788691"
       y="294.96835"
       id="text4487"><tspan
         sodipodi:role="line"
         id="tspan4485"
         x="2.0788691"
         y="306.88748"
         style="stroke-width:0.26458332px" /></text>
    <g
       aria-label="s"
       style="font-style:normal;font-variant:normal;font-weight:normal;font-stretch:condensed;font-size:11.90625px;line-height:125%;font-family:Impact;-inkscape-font-specification:'Impact, Condensed';text-align:start;letter-spacing:0px;word-spacing:0px;writing-mode:lr-tb;text-anchor:start;fill:#000000;fill-opacity:1;stroke:none;stroke-width:0.26458332px;stroke-linecap:butt;stroke-linejoin:miter;stroke-opacity:1"
       id="text4493"
       transform="translate(-0.044642,-0.06696888)">
      <path
         d="m 2.118438,293.17295 q -0.037207,0.1819 -0.1364257,0.41755 -0.095085,0.23151 -0.1736328,0.33073 l -0.057878,0.0703 -0.2563151,-0.0827 q -0.107487,-0.0372 -0.252181,-0.10336 -0.1405599,-0.0661 -0.24804687,-0.13229 -0.10335286,-0.0661 -0.17776692,-0.10749 -0.0702799,-0.0413 -0.0702799,-0.0413 0,0.004 0.037207,0.0661 0.0413411,0.062 0.0950846,0.14056 0.10748697,0.16536 0.21083989,0.42581 0.1033528,0.26045 0.090951,0.34727 -0.00827,0.0786 -0.26044925,0.20257 -0.25218098,0.12402 -0.50436195,0.17363 -0.17776692,0.0331 -0.23564452,0.0661 -0.0578776,0.0289 0.0496094,0.0289 0.0909505,0 0.24804686,0.0496 0.16123046,0.0455 0.31832681,0.11162 0.15709635,0.0661 0.27285155,0.13642 0.1157552,0.0661 0.1157552,0.10749 0,0.12402 -0.1198893,0.39688 -0.11575522,0.27285 -0.24804688,0.45888 -0.0826823,0.11576 -0.0785482,0.13229 0.008268,0.0165 0.11162109,-0.062 0.15709639,-0.11575 0.38033849,-0.21911 0.2232422,-0.10335 0.4216797,-0.14882 0.078548,-0.0165 0.1033529,0 0.024805,0.0124 0.086816,0.10748 0.086816,0.14883 0.1529622,0.32246 0.066146,0.1695 0.095085,0.3266 0.033073,0.16536 0.049609,0.22324 0.016536,0.0579 0.024805,0.0248 0.00413,-0.0124 0.020671,-0.0868 0.016536,-0.0703 0.037207,-0.16123 0.020671,-0.091 0.074414,-0.23151 0.053743,-0.1447 0.1074869,-0.25632 0.082682,-0.1695 0.1198893,-0.2191 0.037207,-0.0496 0.078548,-0.0496 0.095085,0 0.3513997,0.10335 0.2563151,0.10335 0.4092774,0.20257 0.082682,0.0537 0.1405598,0.091 0.062012,0.0331 0.066146,0.0289 0.00413,-0.004 -0.020671,-0.0413 -0.020671,-0.0413 -0.057878,-0.0951 -0.1405599,-0.2067 -0.2563151,-0.49609 -0.1116211,-0.28939 -0.082682,-0.3638 0.016536,-0.0372 0.1116211,-0.091 0.095085,-0.0579 0.2273763,-0.11162 0.1364258,-0.0537 0.2935221,-0.10336 0.1612305,-0.0496 0.3059245,-0.0744 0.086816,-0.0165 0.07028,-0.0248 -0.016536,-0.0124 -0.2025716,-0.0496 -0.1157552,-0.0289 -0.2563151,-0.0785 -0.1405598,-0.0538 -0.2687174,-0.11576 l -0.2769857,-0.14056 0.00827,-0.10748 q 0.00413,-0.11163 0.1033528,-0.34314 0.099219,-0.23151 0.214974,-0.40514 0.049609,-0.0785 0.086816,-0.13643 0.041341,-0.0579 0.041341,-0.062 0,-0.004 -0.049609,0.0248 -0.049609,0.0289 -0.1198894,0.0786 -0.07028,0.0455 -0.1529622,0.0992 -0.082682,0.0496 -0.1322917,0.0744 -0.1198893,0.0579 -0.3307291,0.11989 -0.2108398,0.062 -0.2480469,0.0496 -0.057878,-0.0207 -0.1777669,-0.29352 -0.1198893,-0.27286 -0.1612304,-0.46716 -0.016537,-0.10335 -0.037207,-0.17777 -0.016536,-0.0785 -0.020671,-0.0868 -0.00827,-0.004 -0.028939,0.062 -0.016536,0.0661 -0.033073,0.16536 z m 0.3638021,1.2237 q 0.1033529,0.0579 0.2025716,0.1943 0.099219,0.13643 0.1157552,0.25219 0.045475,0.28525 -0.144694,0.51676 -0.1901693,0.22738 -0.4754231,0.22738 -0.2811198,0 -0.4630209,-0.17777 -0.181901,-0.1819 -0.181901,-0.45889 0,-0.18603 0.086816,-0.32659 0.086816,-0.1447 0.2232422,-0.22324 0.1364258,-0.0827 0.3059245,-0.0868 0.1694986,-0.004 0.3307291,0.0827 z"
         style="font-style:normal;font-variant:normal;font-weight:normal;font-stretch:normal;font-size:4.23333311px;font-family:Genesys;-inkscape-font-specification:Genesys;stroke-width:0.26458332px"
         id="path7272"
         inkscape:connector-curvature="0" />
    </g>
  </g>
</svg>
