<?xml version="1.0" encoding="UTF-8" standalone="no"?>
<!-- Created with Inkscape (http://www.inkscape.org/) -->

<svg
   xmlns:dc="http://purl.org/dc/elements/1.1/"
   xmlns:cc="http://creativecommons.org/ns#"
   xmlns:rdf="http://www.w3.org/1999/02/22-rdf-syntax-ns#"
   xmlns:svg="http://www.w3.org/2000/svg"
   xmlns="http://www.w3.org/2000/svg"
   xmlns:sodipodi="http://sodipodi.sourceforge.net/DTD/sodipodi-0.dtd"
   xmlns:inkscape="http://www.inkscape.org/namespaces/inkscape"
   width="16"
   height="16"
   viewBox="0 0 4.2333333 4.2333337"
   version="1.1"
   id="svg8"
   inkscape:version="0.92.1 r15371"
   sodipodi:docname="GenesysAdvantage.svg">
  <defs
     id="defs2" />
  <sodipodi:namedview
     id="base"
     pagecolor="#ffffff"
     bordercolor="#666666"
     borderopacity="1.0"
     inkscape:pageopacity="0.0"
     inkscape:pageshadow="2"
     inkscape:zoom="11.2"
     inkscape:cx="13.443322"
     inkscape:cy="23.750043"
     inkscape:document-units="mm"
     inkscape:current-layer="layer1"
     showgrid="false"
     units="px"
     inkscape:window-width="1920"
     inkscape:window-height="1017"
     inkscape:window-x="3832"
     inkscape:window-y="-8"
     inkscape:window-maximized="1" />
  <metadata
     id="metadata5">
    <rdf:RDF>
      <cc:Work
         rdf:about="">
        <dc:format>image/svg+xml</dc:format>
        <dc:type
           rdf:resource="http://purl.org/dc/dcmitype/StillImage" />
        <dc:title></dc:title>
      </cc:Work>
    </rdf:RDF>
  </metadata>
  <g
     inkscape:label="Layer 1"
     inkscape:groupmode="layer"
     id="layer1"
     transform="translate(0,-292.76664)">
    <text
       xml:space="preserve"
       style="font-style:normal;font-variant:normal;font-weight:normal;font-stretch:condensed;font-size:11.90625px;line-height:125%;font-family:Impact;-inkscape-font-specification:'Impact, Condensed';text-align:start;letter-spacing:0px;word-spacing:0px;writing-mode:lr-tb;text-anchor:start;fill:#000000;fill-opacity:1;stroke:none;stroke-width:0.26458332px;stroke-linecap:butt;stroke-linejoin:miter;stroke-opacity:1"
       x="2.0788691"
       y="294.96835"
       id="text4487"><tspan
         sodipodi:role="line"
         id="tspan4485"
         x="2.0788691"
         y="306.88748"
         style="stroke-width:0.26458332px" /></text>
    <g
       aria-label="a"
       style="font-style:normal;font-variant:normal;font-weight:normal;font-stretch:condensed;font-size:11.90625px;line-height:125%;font-family:Impact;-inkscape-font-specification:'Impact, Condensed';text-align:start;letter-spacing:0px;word-spacing:0px;writing-mode:lr-tb;text-anchor:start;fill:#000000;fill-opacity:1;stroke:none;stroke-width:0.26458332px;stroke-linecap:butt;stroke-linejoin:miter;stroke-opacity:1"
       id="text4493">
      <path
         d="m 1.2254693,294.89275 q -0.2067057,0.33486 -0.38860672,0.62838 -0.18190103,0.29352 -0.3183268,0.51263 -0.13229166,0.21911 -0.21083984,0.3514 -0.0744141,0.12816 -0.0702799,0.12816 0,0.004 0.0785482,-0.0372 0.0785482,-0.0455 0.21083984,-0.11989 0.13642577,-0.0786 0.31419269,-0.1819 0.17776693,-0.10335 0.37620443,-0.21911 l 0.9715169,-0.57051 0.074414,0.0537 q 0.099219,0.0703 0.3886068,0.26045 0.2935221,0.19017 0.6035807,0.39274 0.3141927,0.20257 0.5581054,0.35967 0.2480469,0.15296 0.252181,0.14882 0.00413,-0.004 -0.2728515,-0.50849 -0.2728516,-0.5085 -0.611849,-1.11621 -0.3348632,-0.61185 -0.6242512,-1.12448 -0.2852539,-0.51263 -0.3017904,-0.5333 -0.00827,-0.008 -0.066146,0.0661 -0.057878,0.0744 -0.1777669,0.26045 -0.1198894,0.1819 -0.3141927,0.49196 -0.1901693,0.30593 -0.4712891,0.75655 z m 1.4593424,-0.12816 q 0.1901693,0.33899 0.3224609,0.58704 0.1322917,0.24391 0.1281576,0.24805 0,0.004 -0.1198893,-0.0661 -0.1198894,-0.0744 -0.2811198,-0.1819 -0.4506185,-0.30179 -0.5291667,-0.31006 -0.074414,-0.008 -0.4258137,0.19844 -0.1653646,0.0992 -0.3141927,0.18604 -0.144694,0.0827 -0.1860352,0.10748 -0.07028,0.0455 -0.062012,0.0165 0.00827,-0.0289 0.1364258,-0.23151 0.5167643,-0.83923 0.6903971,-1.11621 0.1736328,-0.27699 0.1777669,-0.27285 0.00413,0.004 0.1405599,0.24804 0.1364258,0.24392 0.3224609,0.58705 z"
         style="font-style:normal;font-variant:normal;font-weight:normal;font-stretch:normal;font-size:4.23333311px;font-family:Genesys;-inkscape-font-specification:Genesys;stroke-width:0.26458332px"
         id="path5607"
         inkscape:connector-curvature="0" />
    </g>
  </g>
</svg>
