<?xml version="1.0" encoding="UTF-8" standalone="no"?>
<!-- Created with Inkscape (http://www.inkscape.org/) -->

<svg
   xmlns:dc="http://purl.org/dc/elements/1.1/"
   xmlns:cc="http://creativecommons.org/ns#"
   xmlns:rdf="http://www.w3.org/1999/02/22-rdf-syntax-ns#"
   xmlns:svg="http://www.w3.org/2000/svg"
   xmlns="http://www.w3.org/2000/svg"
   xmlns:sodipodi="http://sodipodi.sourceforge.net/DTD/sodipodi-0.dtd"
   xmlns:inkscape="http://www.inkscape.org/namespaces/inkscape"
   width="16"
   height="16"
   viewBox="0 0 4.2333333 4.2333337"
   version="1.1"
   id="svg8"
   inkscape:version="0.92.1 r15371"
   sodipodi:docname="GenesysDespair.svg">
  <defs
     id="defs2" />
  <sodipodi:namedview
     id="base"
     pagecolor="#ffffff"
     bordercolor="#666666"
     borderopacity="1.0"
     inkscape:pageopacity="0.0"
     inkscape:pageshadow="2"
     inkscape:zoom="11.2"
     inkscape:cx="13.443322"
     inkscape:cy="23.750043"
     inkscape:document-units="mm"
     inkscape:current-layer="layer1"
     showgrid="false"
     units="px"
     inkscape:window-width="1920"
     inkscape:window-height="1017"
     inkscape:window-x="3832"
     inkscape:window-y="-8"
     inkscape:window-maximized="1" />
  <metadata
     id="metadata5">
    <rdf:RDF>
      <cc:Work
         rdf:about="">
        <dc:format>image/svg+xml</dc:format>
        <dc:type
           rdf:resource="http://purl.org/dc/dcmitype/StillImage" />
        <dc:title></dc:title>
      </cc:Work>
    </rdf:RDF>
  </metadata>
  <g
     inkscape:label="Layer 1"
     inkscape:groupmode="layer"
     id="layer1"
     transform="translate(0,-292.76664)">
    <text
       xml:space="preserve"
       style="font-style:normal;font-variant:normal;font-weight:normal;font-stretch:condensed;font-size:11.90625px;line-height:125%;font-family:Impact;-inkscape-font-specification:'Impact, Condensed';text-align:start;letter-spacing:0px;word-spacing:0px;writing-mode:lr-tb;text-anchor:start;fill:#000000;fill-opacity:1;stroke:none;stroke-width:0.26458332px;stroke-linecap:butt;stroke-linejoin:miter;stroke-opacity:1"
       x="2.0788691"
       y="294.96835"
       id="text4487"><tspan
         sodipodi:role="line"
         id="tspan4485"
         x="2.0788691"
         y="306.88748"
         style="stroke-width:0.26458332px" /></text>
    <g
       aria-label="d"
       style="font-style:normal;font-variant:normal;font-weight:normal;font-stretch:condensed;font-size:11.90625px;line-height:125%;font-family:Impact;-inkscape-font-specification:'Impact, Condensed';text-align:start;letter-spacing:0px;word-spacing:0px;writing-mode:lr-tb;text-anchor:start;fill:#000000;fill-opacity:1;stroke:none;stroke-width:0.26458332px;stroke-linecap:butt;stroke-linejoin:miter;stroke-opacity:1"
       id="text4493">
      <path
         d="m 1.89933,293.15642 q -0.1198893,0.12402 -0.2315104,0.21911 -0.1116211,0.0951 -0.1736328,0.12815 -0.062012,0.0331 -0.1405599,0.0827 -0.078548,0.0455 -0.1281576,0.0827 l -0.1240234,0.0827 -0.19016926,-0.12816 q -0.0785482,-0.0579 -0.13642577,-0.0909 -0.0578776,-0.0331 -0.0578776,-0.0207 0,0.008 0.0330729,0.062 0.037207,0.0537 0.0868164,0.12403 0.0454753,0.0661 0.0785482,0.12402 0.037207,0.0579 0.037207,0.0703 0,0.0124 -0.0248047,0.0579 -0.0248047,0.0413 -0.0620117,0.0827 -0.037207,0.0455 -0.0785482,0.11575 -0.0413411,0.0703 -0.0661458,0.12403 -0.0289388,0.062 -0.11988932,0.17363 -0.0868164,0.10749 -0.21910806,0.23565 l -0.27698566,0.27698 0.28938801,0.29352 q 0.11988931,0.11989 0.21497394,0.23565 0.0950846,0.11162 0.10748698,0.15296 0.0206706,0.0413 0.0578776,0.11162 0.0413411,0.0661 0.0826823,0.11576 0.037207,0.0537 0.0661458,0.0992 0.0289388,0.0455 0.0289388,0.0579 0,0.0165 -0.0413412,0.0786 -0.037207,0.062 -0.0950846,0.14056 -0.0537435,0.0786 -0.0868164,0.13643 -0.0330729,0.0537 -0.0289388,0.0537 0.008268,0 0.0661458,-0.0413 0.0620117,-0.0413 0.14055989,-0.0951 l 0.19430335,-0.13229 0.1240234,0.0827 q 0.049609,0.0372 0.1281576,0.0868 0.078548,0.0455 0.1405599,0.0786 0.062012,0.0331 0.1777669,0.12816 0.1157552,0.0951 0.2273763,0.21084 l 0.2604492,0.26458 0.2976562,-0.29352 q 0.1198893,-0.11989 0.2191081,-0.20257 0.1033528,-0.0868 0.1240234,-0.0868 0.016536,0 0.086816,-0.0372 0.074414,-0.0413 0.1570964,-0.0951 0.078548,-0.0537 0.1364257,-0.091 0.062012,-0.0413 0.066146,-0.0413 0.00413,0 0.062012,0.0413 0.062012,0.0372 0.1405599,0.0951 0.078548,0.0538 0.1322916,0.0868 0.057878,0.0331 0.057878,0.0248 0,-0.008 -0.041341,-0.0661 -0.037207,-0.062 -0.09095,-0.14056 l -0.1364258,-0.18604 0.09095,-0.10748 q 0.037207,-0.0455 0.082682,-0.12403 0.045475,-0.0827 0.074414,-0.14883 0.041341,-0.0868 0.1198893,-0.18603 0.078548,-0.0992 0.2273763,-0.23565 l 0.2687174,-0.26458 -0.2687174,-0.26458 q -0.1488282,-0.13643 -0.2273763,-0.23151 -0.078548,-0.0992 -0.1198893,-0.19017 -0.028939,-0.0661 -0.078548,-0.1447 Q 3.4950986,294.04545 3.4620256,294 l -0.09095,-0.10749 0.1322916,-0.19017 q 0.053743,-0.0786 0.095085,-0.13643 0.041341,-0.062 0.041341,-0.0703 0,-0.004 -0.057878,0.0289 -0.053743,0.0331 -0.1322916,0.0868 -0.078548,0.0579 -0.1405599,0.0992 -0.062012,0.0372 -0.066146,0.0372 -0.00413,0 -0.049609,-0.0289 -0.045475,-0.0331 -0.1033529,-0.0703 -0.057878,-0.0413 -0.1364258,-0.0868 -0.078548,-0.0496 -0.1322916,-0.0703 -0.066146,-0.0289 -0.1653646,-0.11162 -0.099219,-0.0868 -0.2273763,-0.21911 L 2.1639133,292.8877 Z m 0.8764322,0.58704 q 0.099219,0.0496 0.1736328,0.0951 0.074414,0.0413 0.074414,0.0496 0,0.008 -0.1240234,0.0992 -0.1240235,0.091 -0.3017904,0.21084 l -0.4258138,0.28526 -0.4216796,-0.28526 q -0.1694987,-0.11989 -0.2935222,-0.2067 -0.1240234,-0.0868 -0.1240234,-0.0951 0,-0.0248 0.1570964,-0.11162 0.1570963,-0.0868 0.2728515,-0.12816 0.099219,-0.0331 0.1943034,-0.0413 0.099219,-0.008 0.2687174,-0.004 0.2108398,0.004 0.289388,0.0248 0.078548,0.0165 0.2604492,0.10749 z m -1.3642577,0.79375 q 0.1116211,0.16537 0.1901692,0.28939 0.078548,0.11989 0.078548,0.13229 0,0.0165 -0.086816,0.14469 -0.082682,0.12816 -0.1860351,0.28112 -0.1033529,0.14883 -0.1943034,0.27286 -0.086816,0.11989 -0.1033529,0.12402 -0.028939,0.0124 -0.12815751,-0.1695 -0.0950846,-0.18603 -0.13229166,-0.33073 -0.0413412,-0.14056 -0.0413412,-0.32246 0,-0.1819 0.0413412,-0.32246 0.037207,-0.14469 0.13229166,-0.3266 0.0992187,-0.18603 0.12815751,-0.17363 0.012402,0.004 0.099219,0.12403 0.09095,0.11575 0.2025712,0.27698 z m 1.918229,-0.29766 q 0.1033529,0.15297 0.1529623,0.339 0.053743,0.18604 0.053743,0.38034 0,0.1943 -0.053743,0.38034 -0.049609,0.18603 -0.1529623,0.339 -0.028939,0.0496 -0.057878,0.0827 -0.028939,0.0289 -0.037207,0.0289 -0.00827,0 -0.099219,-0.12403 -0.09095,-0.12402 -0.1943034,-0.27285 -0.1033529,-0.15296 -0.1901693,-0.28525 -0.082682,-0.13229 -0.082682,-0.14883 0,-0.0165 0.082682,-0.14883 0.086816,-0.13229 0.1901693,-0.28112 0.1033529,-0.15296 0.1943034,-0.27698 0.09095,-0.12403 0.099219,-0.12403 0.00827,0 0.037207,0.0331 0.028939,0.0289 0.057878,0.0785 z m -0.7276041,1.48415 q 0.359668,0.24805 0.3720703,0.30179 0.016537,0.0538 -0.2480469,0.17777 -0.1364257,0.062 -0.2232421,0.0827 -0.086816,0.0165 -0.2563151,0.0248 -0.1405599,0.008 -0.2439128,0 -0.099219,-0.008 -0.1901692,-0.0372 -0.1364258,-0.0372 -0.3100586,-0.13229 -0.1736328,-0.0951 -0.1653646,-0.12403 0.00413,-0.008 0.1322917,-0.0992 0.1281575,-0.091 0.2811198,-0.19431 0.1529622,-0.10748 0.2811197,-0.1943 0.1322917,-0.0868 0.1405599,-0.0868 0.00413,0 0.1281576,0.0827 0.1281575,0.0827 0.3017903,0.19844 z"
         style="font-style:normal;font-variant:normal;font-weight:normal;font-stretch:normal;font-size:4.23333311px;font-family:Genesys;-inkscape-font-specification:Genesys;stroke-width:0.26458332px"
         id="path6162"
         inkscape:connector-curvature="0" />
    </g>
  </g>
</svg>
